<mxfile host="Electron" modified="2023-11-21T08:01:23.834Z" agent="Mozilla/5.0 (Windows NT 10.0; Win64; x64) AppleWebKit/537.36 (KHTML, like Gecko) draw.io/22.1.2 Chrome/114.0.5735.289 Electron/25.9.4 Safari/537.36" etag="QohepdYk_L1TZiXrZzFj" version="22.1.2" type="device">
  <diagram name="Page-1" id="MAPcrFVPBrxEUy1YXk4L">
    <mxGraphModel dx="1420" dy="822" grid="1" gridSize="10" guides="1" tooltips="1" connect="1" arrows="1" fold="1" page="1" pageScale="1" pageWidth="1100" pageHeight="850" background="none" math="0" shadow="1">
      <root>
        <mxCell id="0" />
        <mxCell id="1" parent="0" />
        <mxCell id="DpBjCXhYYWjIDzi-TNix-4" value="vnMedIf" style="rounded=0;whiteSpace=wrap;html=1;fontSize=17;" parent="1" vertex="1">
          <mxGeometry x="20" y="490" width="120" height="60" as="geometry" />
        </mxCell>
        <mxCell id="DpBjCXhYYWjIDzi-TNix-10" style="edgeStyle=orthogonalEdgeStyle;rounded=0;orthogonalLoop=1;jettySize=auto;html=1;entryX=0;entryY=0.5;entryDx=0;entryDy=0;" parent="1" source="DpBjCXhYYWjIDzi-TNix-5" target="DpBjCXhYYWjIDzi-TNix-8" edge="1">
          <mxGeometry relative="1" as="geometry" />
        </mxCell>
        <mxCell id="DpBjCXhYYWjIDzi-TNix-13" value="find_output_binary" style="edgeLabel;html=1;align=center;verticalAlign=middle;resizable=0;points=[];rounded=0;" parent="DpBjCXhYYWjIDzi-TNix-10" vertex="1" connectable="0">
          <mxGeometry x="-0.1922" y="1" relative="1" as="geometry">
            <mxPoint x="12" y="1" as="offset" />
          </mxGeometry>
        </mxCell>
        <mxCell id="DpBjCXhYYWjIDzi-TNix-5" value="Makefile(vnMedIf)" style="rounded=0;whiteSpace=wrap;html=1;fontSize=17;" parent="1" vertex="1">
          <mxGeometry x="290" y="480" width="190" height="70" as="geometry" />
        </mxCell>
        <mxCell id="DpBjCXhYYWjIDzi-TNix-6" value="" style="endArrow=classic;html=1;rounded=0;exitX=1;exitY=0.5;exitDx=0;exitDy=0;" parent="1" source="DpBjCXhYYWjIDzi-TNix-4" target="DpBjCXhYYWjIDzi-TNix-5" edge="1">
          <mxGeometry width="50" height="50" relative="1" as="geometry">
            <mxPoint x="330" y="460" as="sourcePoint" />
            <mxPoint x="380" y="410" as="targetPoint" />
          </mxGeometry>
        </mxCell>
        <mxCell id="DpBjCXhYYWjIDzi-TNix-7" value="find make file" style="edgeLabel;html=1;align=center;verticalAlign=middle;resizable=0;points=[];rounded=0;" parent="DpBjCXhYYWjIDzi-TNix-6" vertex="1" connectable="0">
          <mxGeometry x="-0.0807" y="-2" relative="1" as="geometry">
            <mxPoint as="offset" />
          </mxGeometry>
        </mxCell>
        <mxCell id="DpBjCXhYYWjIDzi-TNix-8" value="libvnmedif.so" style="rounded=0;whiteSpace=wrap;html=1;fontSize=17;" parent="1" vertex="1">
          <mxGeometry x="590" y="480" width="190" height="70" as="geometry" />
        </mxCell>
        <mxCell id="DpBjCXhYYWjIDzi-TNix-14" value="VoidIPStreamCtrl&lt;br&gt;aCollector&lt;br&gt;startCollector&lt;br&gt;SIPServerCollector&lt;br&gt;.....&lt;br&gt;" style="rounded=0;whiteSpace=wrap;html=1;fontSize=17;" parent="1" vertex="1">
          <mxGeometry x="590" y="650" width="190" height="130" as="geometry" />
        </mxCell>
        <mxCell id="DpBjCXhYYWjIDzi-TNix-15" value="" style="endArrow=classic;html=1;rounded=0;exitX=0.5;exitY=1;exitDx=0;exitDy=0;entryX=0.5;entryY=0;entryDx=0;entryDy=0;" parent="1" source="DpBjCXhYYWjIDzi-TNix-8" target="DpBjCXhYYWjIDzi-TNix-14" edge="1">
          <mxGeometry width="50" height="50" relative="1" as="geometry">
            <mxPoint x="480" y="700" as="sourcePoint" />
            <mxPoint x="530" y="650" as="targetPoint" />
          </mxGeometry>
        </mxCell>
        <mxCell id="DpBjCXhYYWjIDzi-TNix-16" value="find dependants" style="edgeLabel;html=1;align=center;verticalAlign=middle;resizable=0;points=[];rounded=0;" parent="DpBjCXhYYWjIDzi-TNix-15" vertex="1" connectable="0">
          <mxGeometry x="-0.2891" y="1" relative="1" as="geometry">
            <mxPoint as="offset" />
          </mxGeometry>
        </mxCell>
        <mxCell id="DpBjCXhYYWjIDzi-TNix-17" value="&lt;div style=&quot;font-size: 15px;&quot;&gt;&lt;font style=&quot;font-size: 15px;&quot;&gt;Find makes files that contains:&amp;nbsp;&lt;br&gt;SHARED_LIBS = \&lt;/font&gt;&lt;/div&gt;&lt;div style=&quot;font-size: 15px;&quot;&gt;&lt;font style=&quot;font-size: 15px;&quot;&gt;$(RW_LIBPATH)/librw.so \&lt;span style=&quot;&quot;&gt;&lt;/span&gt;&lt;/font&gt;&lt;/div&gt;&lt;div style=&quot;font-size: 15px;&quot;&gt;&lt;span style=&quot;&quot;&gt;&lt;font style=&quot;font-size: 15px;&quot;&gt;$(VN)/vitalnet/perfmon/ntport/$(cfg)/libntport.so \&lt;/font&gt;&lt;/span&gt;&lt;/div&gt;&lt;div style=&quot;font-size: 15px;&quot;&gt;&lt;font style=&quot;font-size: 15px;&quot;&gt;$(VN)/vitalnet/vnMedIf/$(cfg)/&lt;b style=&quot;&quot;&gt;libvnmedif.so&lt;/b&gt; \&lt;/font&gt;&lt;br&gt;&lt;/div&gt;" style="rounded=0;whiteSpace=wrap;html=1;align=left;verticalAlign=middle;" parent="1" vertex="1">
          <mxGeometry x="90" y="590" width="350" height="170" as="geometry" />
        </mxCell>
        <mxCell id="DpBjCXhYYWjIDzi-TNix-18" value="" style="endArrow=none;dashed=1;html=1;dashPattern=1 3;strokeWidth=2;rounded=0;entryX=1;entryY=0.5;entryDx=0;entryDy=0;" parent="1" target="DpBjCXhYYWjIDzi-TNix-17" edge="1">
          <mxGeometry width="50" height="50" relative="1" as="geometry">
            <mxPoint x="690" y="610" as="sourcePoint" />
            <mxPoint x="830" y="600" as="targetPoint" />
          </mxGeometry>
        </mxCell>
        <mxCell id="DpBjCXhYYWjIDzi-TNix-20" value="Find module path on the server" style="rounded=0;whiteSpace=wrap;html=1;fontSize=17;fillColor=#f5f5f5;strokeColor=#666666;fontColor=#333333;" parent="1" vertex="1">
          <mxGeometry x="530" y="10" width="190" height="90" as="geometry" />
        </mxCell>
        <mxCell id="DpBjCXhYYWjIDzi-TNix-21" value="&lt;b&gt;&lt;font style=&quot;font-size: 21px;&quot;&gt;search make file options:&lt;/font&gt;&lt;/b&gt;&lt;br style=&quot;font-size: 16px;&quot;&gt;&lt;br style=&quot;font-size: 16px;&quot;&gt;name: ^Makefile$&lt;br style=&quot;font-size: 16px;&quot;&gt;is_hidden: false&lt;br style=&quot;font-size: 16px;&quot;&gt;exclude_folders:&amp;nbsp;thirdparty;pegasus;thdparty&amp;nbsp;&lt;br style=&quot;font-size: 16px;&quot;&gt;" style="rounded=0;html=1;align=left;verticalAlign=top;whiteSpace=wrap;fontSize=16;" parent="1" vertex="1">
          <mxGeometry x="770" y="10" width="320" height="190" as="geometry" />
        </mxCell>
        <mxCell id="DpBjCXhYYWjIDzi-TNix-23" value="&lt;h2 style=&quot;border-color: rgb(0, 0, 0); color: rgb(255, 255, 255); font-family: Helvetica; font-style: normal; font-variant-ligatures: normal; font-variant-caps: normal; letter-spacing: normal; orphans: 2; text-indent: 0px; text-transform: none; widows: 2; word-spacing: 0px; -webkit-text-stroke-width: 0px; background-color: rgb(27, 29, 30); text-decoration-thickness: initial; text-decoration-style: initial; text-decoration-color: initial; text-align: left;&quot;&gt;&lt;b style=&quot;border-color: rgb(0, 0, 0); background-color: initial;&quot;&gt;&lt;font style=&quot;border-color: rgb(0, 0, 0); font-size: 25px;&quot;&gt;file format:&amp;nbsp;&lt;/font&gt;&lt;/b&gt;&lt;/h2&gt;&lt;h2 style=&quot;border-color: rgb(0, 0, 0); color: rgb(255, 255, 255); font-family: Helvetica; font-style: normal; font-variant-ligatures: normal; font-variant-caps: normal; letter-spacing: normal; orphans: 2; text-indent: 0px; text-transform: none; widows: 2; word-spacing: 0px; -webkit-text-stroke-width: 0px; background-color: rgb(27, 29, 30); text-decoration-thickness: initial; text-decoration-style: initial; text-decoration-color: initial; text-align: left;&quot;&gt;&lt;span style=&quot;border-color: rgb(0, 0, 0); background-color: initial;&quot;&gt;&lt;font style=&quot;border-color: rgb(0, 0, 0); font-size: 18px;&quot;&gt;&lt;span style=&quot;border-color: rgb(0, 0, 0); font-weight: normal;&quot;&gt;all: $(&lt;/span&gt;OBJDIR&lt;span style=&quot;border-color: rgb(0, 0, 0); font-weight: normal;&quot;&gt;)/$(&lt;/span&gt;EXETARGET)&lt;/font&gt;&lt;/span&gt;&lt;br style=&quot;border-color: rgb(0, 0, 0);&quot;&gt;&lt;/h2&gt;&lt;div style=&quot;border-color: rgb(0, 0, 0); color: rgb(255, 255, 255); font-family: Helvetica; font-size: 12px; font-style: normal; font-variant-ligatures: normal; font-variant-caps: normal; font-weight: 400; letter-spacing: normal; orphans: 2; text-indent: 0px; text-transform: none; widows: 2; word-spacing: 0px; -webkit-text-stroke-width: 0px; background-color: rgb(27, 29, 30); text-decoration-thickness: initial; text-decoration-style: initial; text-decoration-color: initial; text-align: left;&quot;&gt;&lt;span style=&quot;border-color: rgb(0, 0, 0); background-color: initial;&quot;&gt;&lt;font style=&quot;border-color: rgb(0, 0, 0);&quot;&gt;&lt;font style=&quot;border-color: rgb(0, 0, 0); font-size: 18px;&quot;&gt;&lt;b style=&quot;border-color: rgb(0, 0, 0);&quot;&gt;EXETARGET&lt;/b&gt;=voipstreamctrl&lt;/font&gt;&lt;/font&gt;&lt;/span&gt;&lt;/div&gt;" style="text;whiteSpace=wrap;html=1;strokeColor=default;shadow=0;glass=0;" parent="1" vertex="1">
          <mxGeometry x="40" y="230" width="290" height="140" as="geometry" />
        </mxCell>
        <mxCell id="dftMPX6tph4yP3IZ0AmF-1" value="A -&amp;gt; B, C, D&lt;br&gt;&lt;br&gt;B-&amp;gt; D,E&lt;br&gt;&lt;br&gt;F- &amp;gt; G, A" style="rounded=0;whiteSpace=wrap;html=1;align=left;" parent="1" vertex="1">
          <mxGeometry x="920" y="366" width="160" height="135" as="geometry" />
        </mxCell>
        <mxCell id="TwsGS71DUeC5yZHEPYPV-1" value="A-&amp;gt;&amp;nbsp;&lt;br&gt;B-&amp;gt;&amp;nbsp;&lt;br&gt;C-&amp;gt;&lt;br&gt;D-&amp;gt; B," style="text;html=1;align=center;verticalAlign=middle;resizable=0;points=[];autosize=1;strokeColor=none;fillColor=none;" vertex="1" parent="1">
          <mxGeometry x="860" y="588" width="60" height="70" as="geometry" />
        </mxCell>
      </root>
    </mxGraphModel>
  </diagram>
</mxfile>
